<svg xmlns="http://www.w3.org/2000/svg" width="64" height="64" viewBox="0 0 64 64">
    <g fill="none" fill-rule="nonzero">
        <path fill="#FFF" d="M17.065 4.222l-.84.201-.481.516-4.419 15.366 1.25 26.647 1.986 8.258.912 3.082.46.66.548.32 2.238.15L41.6 52.186 57.431 34.08l-1.454-17.425-2.176-6.276-1.53-2.446-.815-.95-.835-.758-.757-.475-1.122-.671-1.397-.754-9.042-1.42z"/>
        <path fill="#175EA9" d="M34.248 16.655h-6.011v18.168l6.01-6.06h6.006V22.71c0-3.344-2.688-6.055-6.005-6.055zM32.05 0C14.63 0 .507 14.237.507 31.799c0 17.562 14.123 31.798 31.544 31.798 17.422 0 31.545-14.236 31.545-31.798a31.924 31.924 0 0 0-9.238-22.487A31.412 31.412 0 0 0 32.05 0zm20.22 28.764L40.252 40.877H28.237v6.06L16.225 59.05V28.764l12.012-12.109H16.225V4.542h12.012v12.113L40.253 4.542h6.006c3.318 0 6.008 2.71 6.011 6.054v18.168zm-18.023 0h6.005V22.71c0-3.344-2.688-6.055-6.005-6.055h-6.011v18.168l6.01-6.06z"/>
    </g>
</svg>
